<svg width="1393" height="336" viewBox="0 0 1393 336" fill="#1b0459" class="relejo_svg"
    xmlns="http://www.w3.org/2000/svg">
    <defs>
        <style> #city_2 { stroke-dasharray: 6500; stroke-dashoffset: 0; -webkit-animation: dash 40s
            linear forwards; -o-animation: dash 40s linear forwards; -moz-animation: dash 40s linear
            forwards; animation: dash 40s linear forwards; animation-iteration-count: infinite;
            animation-direction:alternate; }         <!-- Ida y vuelta --> @-webkit-keyframes dash {
            from { stroke-dashoffset:
            6500; } to { stroke-dashoffset: -6500; } }

        </style>
    </defs>
<path id="city_2"
        d="M0 36H10V225H24L27 274.5H31L35 225H107V219H112V181.5H107V173.5H112V136.5H107.5V128H112V91H107.5V82.5H112V45H107.5V1H137V186H144.5L155 214H190L200.5 186H211.5V203L252.5 213.5V186H258.5V9.5H292V158H305V183.5H308.5V158H325.5V148.5L343 124H350.5V35.5H384V199.5H394V218.5L461 234H465V199.5H474V17.5H502.5V173.5H514L515.5 208.5H517L519 173.5H530V127.5H542.5V137H552V127.5H559V39H578.5V73H595V135H590V143.5H700.5V135H696V72.5H712.5V13H737V235.5H754.5L756.5 287H759L761.5 235.5H779.5V164.5H782V162.5H784V164.5H797V178.5H811V164.5H822V34.5H850.5V78.5L917.5 104V62H935V145H944V156.5H954.5V145H969V200.5H984L985.5 241.5H987.5L989 200.5H1003V8H1031V220H1054.5V237H1080.5V220H1104V44.5H1136V258H1146.5V282H1180.5V335.5H1185.5V300.5H1216V258H1225.5V19.5H1254V209.5C1257.67 216.5 1268.9 230.4 1284.5 230V239H1297L1304 289.5L1311.5 239H1323V230C1332.33 229.833 1351.6 225.5 1354 209.5V48.5H1393"
        stroke="black" />
</svg>
