<svg width="1394" height="210" viewBox="0 0 1394 210" fill="#1b0459"
    xmlns="http://www.w3.org/2000/svg">
    
<path d="M1 0.5V1M1 1V51.5H11V151.5H24L29.5 178.5L37 151.5H108V148.5H112V130H108V123.5H112V105.5H108V101H112V80.5H108V75H112V57H108V32.5H138.5V130H144.5L156 146H193.5L202.5 133H211.5V140L253 146V133H259V39.5H293V116H305.5V130H310V116H327.5V113L343.5 101H351.5V51.5H384V137.5H395V148.5L466 158.5V137.5H475.5V43.5H503.5V123.5H515L517.5 143.5L521 123.5H531V101H544.5V105.5H552.5V101H560.5V54H578.5V71.5H596V101H590V108H702V105.5H696V71.5H714.5V39.5H736.5V156H755.5L758.5 183L763 156H780.5V119.5H799V126.5H813V119.5H824.5V51.5H850V71.5L919.5 87V66H935.5V108H944.5V115.5H956V108H971V138.5H984.5L988 161L991 138.5H1004.5V36.5H1031.5V149H1055.5V156H1083V149H1105V57H1137V169H1147V181H1180.5V209.5H1187.5V193H1216.5V169H1227.5V41.5H1256.5V142.5C1255.5 145.333 1259.6 152 1286 156V161H1298.5L1305 189L1314 161H1323.5V156C1330.33 156.833 1346.6 155.3 1357 142.5V57H1393V1H1Z" stroke="black"/>
</svg>
