<svg width="1394" height="308" viewBox="0 0 1394 308" fill="#1b0459"
    xmlns="http://www.w3.org/2000/svg" style="position:absoulte;top:0;left:0">
<path d="M1 0V0.73445M1 0.73445V74.9139H11V221.804H24L29.5 261.464L37 221.804H108V217.397H112V190.222H108V180.675H112V154.234H108V147.624H112V117.512H108V109.433H112V82.9928H108V47.0048H138.5V190.222H144.5L156 213.725H193.5L202.5 194.629H211.5V204.911L253 213.725V194.629H259V57.2871H293V169.658H305.5V190.222H310V169.658H327.5V165.251L343.5 147.624H351.5V74.9139H384V201.239H395V217.397L466 232.086V201.239H475.5V63.1627H503.5V180.675H515L517.5 210.053L521 180.675H531V147.624H544.5V154.234H552.5V147.624H560.5V78.5861H578.5V104.292H596V147.624H590V157.907H702V154.234H696V104.292H714.5V57.2871H736.5V228.414H755.5L758.5 268.074L763 228.414H780.5V174.799H799V185.081H813V174.799H824.5V74.9139H850V104.292L919.5 127.06V96.2129H935.5V157.907H944.5V168.923H956V157.907H971V202.708H984.5L988 235.758L991 202.708H1004.5V52.8804H1031.5V218.132H1055.5V228.414H1083V218.132H1105V82.9928H1137V247.51H1147V265.136H1180.5V307H1187.5V282.763H1216.5V247.51H1227.5V60.2249H1256.5V208.584C1255.5 212.746 1259.6 222.538 1286 228.414V235.758H1298.5L1305 276.888L1314 235.758H1323.5V228.414C1330.33 229.638 1346.6 227.386 1357 208.584V82.9928H1393V0.73445H1Z" stroke="black"/>
</svg>
